<svg preserveAspectRatio="none" width="100%" height="100%" overflow="visible" style="display: block;" viewBox="0 0 21 20" fill="none" xmlns="http://www.w3.org/2000/svg">
<path id="Vector" d="M14.5932 19.6506C13.4115 19.2033 11.8052 17.8257 11.1959 16.7343L10.7528 15.9113L9.27573 15.9471C8.131 15.965 7.61403 15.8934 6.96781 15.6071C5.32456 14.8736 3.9952 12.995 3.589 10.7943C3.36744 9.70293 3.31205 9.59558 2.44427 8.96937C-0.491413 6.82239 -0.860681 2.15269 1.76112 0.435103C2.97971 -0.370017 3.29359 -0.0121863 2.37042 1.13287C1.61342 2.06323 1.37339 2.88625 1.46571 4.17444C1.59495 5.69522 2.68429 7.68118 3.3859 7.68118C3.51515 7.68118 3.68132 7.50227 3.73671 7.28757C4.01366 6.41088 5.01068 5.15847 5.76768 4.72908C7.66942 3.63769 9.36805 4.58594 9.36805 6.75082C9.36805 8.41474 8.03868 9.68504 6.02617 9.9713L5.02915 10.0965L5.08454 10.7227C5.3061 12.9771 7.50324 14.9452 9.31266 14.5336L10.0143 14.3726L10.125 12.6908C10.1989 11.4563 10.3281 10.7943 10.6236 10.2397C11.8975 7.87799 14.1685 8.43263 14.1685 11.1164C14.1685 12.2614 13.707 13.2812 12.7838 14.2653C12.0452 15.0704 12.0452 15.3567 12.7469 16.3586C13.7993 17.8257 15.5718 18.7561 16.8642 18.5056C17.6581 18.3624 18.6736 17.5215 19.209 16.5554C19.5599 15.9292 19.5968 15.5535 19.5783 13.9969C19.5414 12.1183 19.6891 11.7068 20.1876 12.1899C20.5569 12.5477 21 14.1937 21 15.2135C21 17.0385 19.8368 18.8455 18.1566 19.597C17.0119 20.1158 15.8856 20.1337 14.5932 19.6506ZM12.3591 12.333C12.7099 11.671 12.8022 10.6333 12.5068 10.4544C12.2668 10.3112 11.8421 11.2058 11.6944 12.2256C11.5283 13.2455 11.8237 13.2991 12.3591 12.333ZM6.94934 8.12847C7.98329 7.62751 8.16793 5.87414 7.22629 5.74889C6.48776 5.64155 5.12146 7.12654 5.12146 8.03901C5.12146 8.32528 5.23225 8.39685 5.76768 8.39685C6.13695 8.39685 6.67239 8.2716 6.94934 8.12847Z" fill="var(--fill-0, #A5A5A5)"/>
</svg>
