<svg preserveAspectRatio="none" width="100%" height="100%" overflow="visible" style="display: block;" viewBox="0 0 20 22" fill="none" xmlns="http://www.w3.org/2000/svg">
<path id="Vector" d="M0.306285 20.5438C0.50672 20.4885 1.5271 20.5179 2.59499 20.6118C3.66288 20.7058 4.7624 20.7444 5.03819 20.6838L5.54682 20.5746L4.83734 17.8483C4.13541 15.151 4.12409 15.1075 4.39599 14.7371C4.94656 13.9635 5.78304 13.9348 9.29658 14.5819C10.5348 14.7998 11.5816 14.9307 11.6133 14.8753C11.6449 14.82 10.5229 13.2799 9.11748 11.4761C7.70828 9.65784 6.46643 8.01098 6.34879 7.79475C5.95888 7.06301 6.37449 6.12458 7.17623 5.90339C7.73459 5.74934 8.89071 6.00546 13.0789 7.18138C15.4146 7.84258 17.6236 8.42992 17.9831 8.45509C19.2997 8.6203 19.0199 8.07579 16.1407 5.03107C12.5769 1.24266 11.6676 0.0480558 12.3458 0.000825377C12.6616 -0.0241158 13.2752 0.50601 15.7917 2.98245C19.4134 6.52174 20.402 8.02088 19.8629 9.13327C19.4532 9.9768 18.1547 9.82213 13.0365 8.37435C7.8315 6.88831 7.41398 6.81699 7.54607 7.32455C7.5838 7.46956 8.52631 8.73273 9.64295 10.1344C12.7961 14.1138 13.3277 14.9774 13.0424 15.7089C12.8234 16.2822 12.066 16.3202 9.52091 15.8567C6.41813 15.3139 5.64868 15.2464 5.51162 15.4863C5.43782 15.6154 5.60764 16.268 6.06559 17.556C7.14222 20.6318 7.07021 21.4754 5.68148 21.8586C4.75089 22.1153 3.96335 22.0373 1.84477 21.5027C0.10453 21.0658 -0.395238 20.7374 0.306285 20.5438Z" fill="var(--fill-0, #A5A5A5)"/>
</svg>
