<svg preserveAspectRatio="none" width="100%" height="100%" overflow="visible" style="display: block;" viewBox="0 0 11.4142 13.1606" fill="none" xmlns="http://www.w3.org/2000/svg">
<path id="Vector" d="M0.183671 12.1644C0.303866 12.1312 0.915762 12.1488 1.55614 12.2052C2.19653 12.2615 2.27663 12.4398 2.44201 12.4035L2.74703 12.338L2.32157 10.7031C1.90064 9.08561 1.89385 9.05953 2.0569 8.83745C2.38707 8.37354 2.88868 8.35631 4.99565 8.74436C5.7382 8.87504 6.36593 8.9535 6.3849 8.92031C6.40387 8.88711 5.73105 7.96359 4.88825 6.88191C4.04319 5.79154 3.29849 4.80396 3.22794 4.6743C2.99413 4.23549 3.24336 3.67274 3.72414 3.5401C4.05897 3.44772 4.75226 3.60131 7.26382 4.30647C8.66446 4.70298 9.98915 5.05519 10.2047 5.07028C10.9943 5.16935 10.8265 4.84282 9.09987 3.01699C6.96277 0.745188 6.41748 0.0288177 6.82418 0.000494956C7.01353 -0.0144616 7.38151 0.30344 8.8906 1.78849C11.0624 3.91091 11.6553 4.8099 11.332 5.47697C11.0863 5.98281 10.3076 5.89006 7.23835 5.02186C4.11709 4.13073 3.86671 4.08796 3.94592 4.39233C3.96855 4.47929 4.53374 5.23677 5.20336 6.07729C7.09422 8.46364 7.41303 8.98152 7.24193 9.42019C7.11056 9.76401 6.6564 9.78678 5.13018 9.50881C3.26952 9.1833 2.80811 9.14283 2.72592 9.28667C2.68166 9.36413 2.7835 9.75546 3.05812 10.5279C3.70374 12.3723 3.66056 12.8782 2.82778 13.108C2.26973 13.2619 2.37671 13.06 1.10625 12.7394C0.062684 12.4774 -0.237013 12.2805 0.183671 12.1644Z" fill="var(--fill-0, #A5A5A5)"/>
</svg>
