<svg preserveAspectRatio="none" width="100%" height="100%" overflow="visible" style="display: block;" viewBox="0 0 23 15.8911" fill="none" xmlns="http://www.w3.org/2000/svg">
<path id="Vector" d="M8.20527 15.7771C7.43467 15.6291 6.42231 15.0863 5.99924 14.5806C5.31929 13.7664 4.68468 12.3108 4.68468 11.4967C4.68468 10.7689 4.59402 10.7196 3.80831 10.9169C2.2671 11.287 0.710788 10.9909 0.227273 10.2261C-0.135363 9.65872 -0.0598142 8.7829 0.423701 7.94408C0.876996 7.16695 1.99513 6.15543 2.73551 5.83471C3.26435 5.61267 3.27946 5.53866 2.81106 5.18093C2.23688 4.73685 2.19155 4.36679 2.64485 3.60199C3.24924 2.61515 4.24649 1.86268 5.92369 1.12255C8.29593 0.0987064 10.7135 -0.283694 11.7108 0.222061C12.0583 0.382423 13.1462 1.56663 13.5239 2.17107C13.539 2.19574 13.811 2.08472 14.1434 1.94903C14.5816 1.764 14.8989 1.71466 15.3825 1.764C17.7849 2.02304 21.7286 5.13159 22.7409 7.57402C23.0734 8.36349 23.0885 9.89309 22.7712 10.4729C22.2423 11.4474 20.9429 11.9901 19.855 11.7064C19.1297 11.5214 18.4649 11.2007 17.664 10.6456C17.3165 10.4112 16.9992 10.2261 16.9388 10.2261C16.8783 10.2261 16.7574 10.5469 16.6517 10.9416C16.3193 12.2615 15.3522 13.0756 14.0981 13.125C13.4182 13.1373 13.388 13.162 13.0706 13.7541C12.7382 14.3709 11.8467 15.1233 11.0761 15.4564C10.7135 15.6044 9.0212 15.9251 8.77945 15.8881C8.73412 15.8758 8.47725 15.8388 8.20527 15.7771ZM10.0185 14.6176C10.8495 14.3709 11.5294 13.8898 11.9374 13.2854L12.2849 12.7426L11.7259 12.1505C11.0157 11.3857 10.7437 10.8429 10.6228 9.95477C10.5473 9.30099 10.4869 9.22697 9.95802 8.93092C9.03631 8.4375 8.17505 6.72287 8.15994 5.40297C8.15994 5.15626 8.11461 4.93422 8.06928 4.89721C8.02395 4.84787 7.57066 4.98356 7.05692 5.18093C6.54319 5.3783 5.75748 5.588 5.30418 5.66201C3.82342 5.88405 2.38798 6.85856 1.58716 8.17846C1.16408 8.86924 1.10364 9.44901 1.42095 9.80674C1.75337 10.1645 3.00749 10.1151 4.14072 9.69572C5.07753 9.33799 5.65171 9.27631 5.83303 9.49835C5.89347 9.57237 5.95391 10.1398 5.96902 10.7689C6.04456 12.6686 6.83028 14.0995 8.05417 14.5436C8.79456 14.8273 9.23274 14.8396 10.0185 14.6176ZM14.491 12.1381C15.1407 11.8668 15.5335 11.0773 15.6091 9.88075C15.73 8.16612 16.1228 8.09211 17.936 9.48602C19.4168 10.6209 20.278 10.9663 20.9882 10.7196C21.5775 10.5222 21.8344 9.99177 21.8344 8.9926C21.8344 8.06744 21.3055 7.00658 20.278 5.88405C18.9333 4.40379 16.1984 2.7015 15.1558 2.7015C14.6723 2.7015 13.9017 2.92353 13.9017 3.05923C13.9168 3.09623 14.0075 3.4663 14.1283 3.87337C14.4154 4.8232 14.4154 6.3158 14.1283 7.09293C13.7959 8.00576 13.116 8.68421 12.1489 9.05428C11.3481 9.36266 11.3179 9.38733 11.4086 9.76973C11.6201 10.6209 12.2849 11.509 13.0555 11.9284C13.8866 12.3849 13.9168 12.3849 14.491 12.1381ZM12.3454 7.68504C12.8591 7.20395 13.1462 6.41448 13.1462 5.43998C13.1311 3.99672 12.2245 1.89969 11.1668 0.93752L10.6531 0.468771L9.53494 0.727817C7.28357 1.24591 5.12286 2.3561 4.06517 3.52797C3.491 4.16942 3.52122 4.55182 4.15583 4.69985C4.85089 4.86021 5.53083 4.71218 6.99649 4.10774C8.38659 3.54031 8.77945 3.4663 9.05142 3.72534C9.14208 3.82403 9.27807 4.4408 9.36873 5.11925C9.56516 6.57484 9.86736 7.38898 10.3962 7.89474C10.7286 8.2278 10.8495 8.2648 11.3179 8.20313C11.6956 8.16612 12.013 7.99342 12.3454 7.68504Z" fill="var(--fill-0, #A5A5A5)"/>
</svg>
